<svg width="95" height="35" viewBox="0 0 95 35" fill="none" xmlns="http://www.w3.org/2000/svg">
<path d="M3.8099 4.85261C2.26434 2.88406 3.66674 0 6.16953 0H92C93.6569 0 95 1.34315 95 3V32C95 33.6569 93.6569 35 92 35H32.3419C29.2721 35 26.3723 33.5899 24.4765 31.1753L3.8099 4.85261Z" fill="white"/>
<path d="M53.8478 5C53.8609 5 53.874 5 53.8875 5C53.8902 5.04806 53.8928 5.09611 53.8955 5.14562C53.9292 5.75891 53.963 6.37219 53.9969 6.98546C53.9996 7.03457 54.0023 7.08369 54.0051 7.13429C54.0711 8.32818 54.1379 9.52198 54.213 10.7153C54.2624 11.4987 54.3082 12.2822 54.3497 13.0661C54.3546 13.1585 54.3596 13.2508 54.3645 13.3432C54.3839 13.7073 54.403 14.0713 54.4203 14.4355C54.4265 14.5658 54.4331 14.696 54.4398 14.8263C54.4439 14.9109 54.4476 14.9955 54.4512 15.0801C54.4538 15.13 54.4564 15.1799 54.4591 15.2314C54.462 15.2944 54.462 15.2944 54.465 15.3588C54.5095 15.6823 54.6336 15.9834 54.758 16.2834C54.7731 16.3202 54.7882 16.357 54.8037 16.395C54.8535 16.5163 54.9035 16.6375 54.9536 16.7587C54.9891 16.8453 55.0247 16.9319 55.0602 17.0185C55.1349 17.2007 55.2098 17.3829 55.2847 17.5651C55.4495 17.9663 55.613 18.3682 55.7765 18.77C55.8678 18.9942 55.9592 19.2185 56.0505 19.4427C56.0687 19.4875 56.087 19.5323 56.1058 19.5784C56.2377 19.9024 56.3698 20.2264 56.5018 20.5504C56.8303 21.3562 57.1587 22.1621 57.4857 22.9685C57.4975 22.9975 57.5092 23.0266 57.5214 23.0565C57.5439 23.112 57.5664 23.1675 57.5888 23.223C57.6101 23.2753 57.6314 23.3276 57.653 23.3798C57.7059 23.5085 57.755 23.6373 57.7991 23.7693C57.9191 24.1186 58.0492 24.3013 58.3803 24.4818C58.4549 24.5297 58.5293 24.5779 58.6034 24.6266C58.6789 24.6745 58.7545 24.7223 58.83 24.7701C58.8683 24.7944 58.9066 24.8187 58.946 24.8437C59.0488 24.9089 59.1517 24.974 59.255 25.0385C59.29 25.0611 59.325 25.0837 59.3611 25.107C59.4499 25.1686 59.4499 25.1686 59.5434 25.1393C59.7019 25.0506 59.8552 24.9552 60.0079 24.8571C60.0384 24.8377 60.0688 24.8183 60.1002 24.7983C60.1658 24.7565 60.231 24.714 60.2958 24.6711C60.408 24.6011 60.408 24.6011 60.545 24.5326C61.0105 24.2906 61.1351 23.9445 61.3075 23.468C61.3373 23.39 61.3673 23.3122 61.3975 23.2344C61.4608 23.0707 61.5233 22.9068 61.5852 22.7427C61.7226 22.3804 61.8709 22.0227 62.0185 21.6646C62.1021 21.4615 62.1849 21.2582 62.2678 21.0548C62.3019 20.9712 62.336 20.8876 62.3701 20.8039C62.5552 20.3501 62.7402 19.8963 62.9252 19.4424C62.9437 19.397 62.9622 19.3517 62.9812 19.305C63.2003 18.7674 63.4188 18.2296 63.6366 17.6915C63.8294 17.2151 64.0234 16.7391 64.2199 16.2642C64.2301 16.2394 64.2404 16.2145 64.251 16.1889C64.4163 15.7893 64.4163 15.7893 64.4634 15.6951C64.4712 15.6252 64.4768 15.555 64.4814 15.4848C64.4844 15.4399 64.4874 15.3949 64.4905 15.3486C64.4936 15.2988 64.4967 15.2489 64.4999 15.1975C64.5033 15.1442 64.5067 15.0909 64.5102 15.0376C64.5519 14.3818 64.5869 13.7256 64.6225 13.0695C64.6942 11.7485 64.7706 10.4278 64.8524 9.10741C64.9144 8.10561 64.973 7.10377 65.024 6.10135C65.0262 6.05905 65.0283 6.01675 65.0306 5.97317C65.0345 5.8965 65.0384 5.81983 65.0421 5.74316C65.0549 5.49475 65.0754 5.24755 65.0995 5C65.1945 5.09501 65.2145 5.16615 65.257 5.29338C65.2722 5.33838 65.2874 5.38337 65.3031 5.42974C65.3196 5.47899 65.336 5.52824 65.353 5.57899C65.3887 5.68471 65.4247 5.79035 65.4608 5.89597C65.4748 5.93723 65.4748 5.93723 65.4892 5.97932C65.5935 6.28398 65.7042 6.58624 65.8152 6.88855C65.9851 7.35215 66.1493 7.81725 66.3091 8.28445C66.4133 8.58887 66.5205 8.89208 66.6302 9.19456C66.7573 9.54458 66.88 9.89585 67.0005 10.2482C67.1376 10.6486 67.2789 11.0472 67.424 11.4448C67.4549 11.5295 67.4857 11.6141 67.5165 11.6988C67.5995 11.9267 67.6827 12.1544 67.7685 12.3813C67.7801 12.4127 67.7918 12.4441 67.8038 12.4764C67.8324 12.5536 67.8616 12.6305 67.8909 12.7075C67.9455 12.9242 67.8787 13.0984 67.7908 13.2979C67.7714 13.3426 67.7519 13.3872 67.7318 13.4331C67.71 13.4822 67.6882 13.5314 67.6664 13.5805C67.6434 13.6328 67.6205 13.6852 67.5975 13.7376C67.5474 13.8519 67.4972 13.9661 67.4468 14.0802C67.3629 14.2702 67.2794 14.4603 67.196 14.6505C67.1061 14.8556 67.0161 15.0607 66.9259 15.2657C66.7205 15.7331 66.516 16.201 66.3122 16.6692C66.0704 17.2246 65.8276 17.7795 65.5841 18.3341C65.5688 18.369 65.5535 18.4038 65.5377 18.4398C65.4941 18.539 65.4505 18.6383 65.4069 18.7376C65.3942 18.7665 65.3815 18.7954 65.3684 18.8251C65.3563 18.8528 65.3441 18.8805 65.3316 18.909C65.3198 18.9358 65.308 18.9627 65.2959 18.9903C65.269 19.0511 65.2416 19.1118 65.214 19.1723C65.1921 19.2205 65.1921 19.2205 65.1698 19.2696C65.1563 19.2989 65.1429 19.3281 65.1291 19.3583C65.0946 19.4315 65.0946 19.4315 65.0995 19.512C65.1224 19.4754 65.1224 19.4754 65.1458 19.4381C65.3375 19.1345 65.5362 18.836 65.7362 18.5378C66.022 18.1115 66.3054 17.684 66.5805 17.2507C66.7939 16.9148 67.0104 16.5812 67.2306 16.2498C67.2624 16.2019 67.2942 16.1539 67.3259 16.1059C67.37 16.0394 67.4142 15.973 67.4585 15.9067C67.4838 15.8686 67.5091 15.8306 67.5352 15.7914C67.5933 15.7104 67.6504 15.6431 67.7236 15.5759C67.8398 15.8614 67.9143 16.1545 67.9895 16.453C68.0033 16.5071 68.0171 16.5613 68.0309 16.6154C68.0597 16.7282 68.0885 16.8411 68.1171 16.954C68.1816 17.2078 68.2466 17.4615 68.3119 17.7152C68.3319 17.7928 68.3517 17.8706 68.3716 17.9483C68.4344 18.1927 68.4997 18.4353 68.5764 18.6758C68.615 18.8181 68.6084 18.8952 68.5585 19.0349C68.478 19.1383 68.3913 19.2323 68.3007 19.327C68.2055 19.4275 68.1183 19.5308 68.0317 19.6387C67.8863 19.8185 67.7364 19.9938 67.5844 20.168C67.4057 20.373 67.2311 20.5805 67.06 20.7919C66.9316 20.948 66.7995 21.1008 66.6676 21.2539C66.5478 21.3931 66.4302 21.5336 66.3146 21.6763C66.1499 21.8793 65.9789 22.0763 65.8072 22.2733C65.6513 22.4525 65.4999 22.6349 65.3503 22.8196C65.222 22.9757 65.0899 23.1285 64.9579 23.2816C64.8382 23.4208 64.7206 23.5613 64.605 23.7041C64.4403 23.907 64.2693 24.104 64.0976 24.301C63.9416 24.4802 63.7902 24.6626 63.6407 24.8473C63.5124 25.0034 63.3803 25.1562 63.2483 25.3093C63.1286 25.4485 63.011 25.589 62.8954 25.7318C62.7307 25.9347 62.5597 26.1317 62.3879 26.3287C62.232 26.5079 62.0806 26.6903 61.9311 26.875C61.8027 27.0311 61.6706 27.1839 61.5387 27.337C61.4189 27.4762 61.3013 27.6167 61.1858 27.7595C61.0211 27.9624 60.85 28.1594 60.6783 28.3564C60.5227 28.5353 60.3716 28.7173 60.2224 28.9016C60.089 29.0638 59.9519 29.2226 59.8145 29.3813C59.7165 29.4948 59.6212 29.6083 59.5333 29.73C59.362 29.6672 59.2657 29.5358 59.1531 29.3995C59.1323 29.3747 59.1114 29.35 59.09 29.3244C59.0467 29.273 59.0036 29.2214 58.9605 29.1698C58.9012 29.0987 58.8413 29.028 58.7813 28.9575C58.614 28.7611 58.4483 28.5637 58.2858 28.3633C58.1202 28.1596 57.9484 27.9618 57.7759 27.7639C57.62 27.5846 57.4686 27.4022 57.3191 27.2176C57.2108 27.0859 57.1 26.9567 56.9887 26.8276C56.8481 26.6645 56.7093 26.5005 56.5737 26.3331C56.4306 26.1568 56.2831 25.9849 56.1339 25.8138C55.9551 25.6087 55.7804 25.401 55.6091 25.1896C55.5025 25.0598 55.3936 24.9322 55.2841 24.8049C55.2639 24.7814 55.2437 24.758 55.223 24.7338C55.2028 24.7104 55.1826 24.6869 55.1618 24.6628C54.9135 24.3741 54.6669 24.084 54.4268 23.7885C54.2513 23.573 54.0705 23.3623 53.8892 23.1516C53.72 22.9549 53.5527 22.7565 53.3853 22.5582C53.3299 22.4927 53.2744 22.4274 53.2189 22.362C53.0499 22.163 52.8818 21.9635 52.7171 21.7608C52.5416 21.5453 52.3609 21.3346 52.1796 21.1239C52.0104 20.9272 51.8431 20.7288 51.6756 20.5305C51.6203 20.465 51.5648 20.3997 51.5093 20.3343C51.3109 20.1007 51.1138 19.8663 50.9225 19.6268C50.8485 19.5386 50.7735 19.4562 50.6936 19.3736C50.6711 19.3496 50.6486 19.3255 50.6254 19.3007C50.5812 19.2537 50.5361 19.2076 50.4899 19.1625C50.4268 19.0941 50.3861 19.0407 50.349 18.9554C50.3625 18.876 50.3625 18.876 50.3951 18.7902C50.4068 18.7586 50.4185 18.7271 50.4305 18.6945C50.443 18.6625 50.4554 18.6305 50.4683 18.5975C50.479 18.5683 50.4898 18.539 50.5009 18.5089C50.5345 18.4178 50.569 18.3271 50.6037 18.2364C50.6228 18.1862 50.6228 18.1862 50.6423 18.1349C50.6836 18.0265 50.725 17.9181 50.7665 17.8098C50.7879 17.7536 50.7879 17.7536 50.8098 17.6963C51.0293 17.1211 51.2523 16.5474 51.4785 15.9748C51.6129 15.6342 51.7462 15.2931 51.8797 14.9521C51.8947 14.9138 51.9097 14.8754 51.9252 14.8359C52.205 14.1211 52.4828 13.4055 52.7596 12.6896C52.921 12.2723 53.0838 11.8558 53.2514 11.4409C53.2384 11.4663 53.2255 11.4916 53.2121 11.5177C52.9521 12.0248 52.6861 12.5267 52.4032 13.0214C52.2703 13.2544 52.1423 13.489 52.0189 13.7271C51.8765 14.0014 51.7273 14.2712 51.5741 14.5396C51.2744 15.0649 50.9903 15.5984 50.7068 16.1325C50.6675 16.1325 50.6281 16.1325 50.5875 16.1325C50.5086 15.9728 50.4301 15.813 50.3519 15.653C50.3253 15.5986 50.2986 15.5443 50.2717 15.4901C50.233 15.4119 50.1948 15.3334 50.1566 15.255C50.1334 15.2079 50.1103 15.1609 50.0865 15.1124C50.0068 14.9218 49.9625 14.7698 50.0415 14.5741C50.0537 14.543 50.0659 14.5119 50.0785 14.4798C50.0923 14.4462 50.1061 14.4127 50.1204 14.3781C50.1419 14.3239 50.1419 14.3239 50.1638 14.2686C50.1952 14.1895 50.2269 14.1105 50.2588 14.0316C50.3103 13.9032 50.3609 13.7744 50.4111 13.6455C50.608 13.1406 50.8084 12.6372 51.0101 12.1342C51.2217 11.6063 51.4301 11.0772 51.6382 10.5479C51.7698 10.2135 51.9018 9.87921 52.0338 9.54493C52.059 9.48094 52.0843 9.41695 52.1096 9.35295C52.1476 9.25652 52.1857 9.1601 52.2238 9.06367C52.3095 8.84665 52.3951 8.62962 52.4807 8.41258C52.5904 8.13452 52.7002 7.85648 52.81 7.57845C52.8836 7.39226 52.9571 7.20604 53.0305 7.0198C53.1162 6.80262 53.2019 6.58547 53.2877 6.36834C53.3211 6.28357 53.3546 6.19878 53.388 6.11399C53.4349 5.99501 53.4819 5.87606 53.5289 5.75713C53.5496 5.70448 53.5496 5.70448 53.5708 5.65077C53.6577 5.43127 53.7502 5.21495 53.8478 5Z" fill="black"/>
<path d="M68.6778 24.6807C68.7172 24.7003 68.7172 24.7003 68.7573 24.7204C68.6826 24.8992 68.6063 25.0772 68.5287 25.2548C68.5027 25.315 68.477 25.3754 68.4517 25.4359C68.2871 25.8298 68.1103 26.1257 67.7912 26.4128C67.6975 26.4972 67.616 26.5824 67.5347 26.6785C67.5046 26.7131 67.5046 26.7131 67.4739 26.7483C67.4296 26.7997 67.3865 26.852 67.3448 26.9055C67.1066 27.1828 66.8169 27.2447 66.4752 27.3235C66.4148 27.3384 66.3545 27.3533 66.2942 27.3683C66.1354 27.4076 65.9764 27.4455 65.8173 27.4831C65.6591 27.5207 65.5012 27.5594 65.3433 27.598C65.1581 27.6434 64.9728 27.6886 64.7874 27.7334C64.3022 27.8507 63.8203 27.9785 63.3389 28.1104C63.1 28.1752 62.8603 28.2364 62.6202 28.2966C62.5393 28.3169 62.4586 28.3376 62.3778 28.3583C62.3252 28.3715 62.2726 28.3848 62.2199 28.398C62.1743 28.4095 62.1286 28.4211 62.0815 28.433C61.97 28.4555 61.873 28.4629 61.7598 28.4578C61.7767 28.3938 61.7942 28.3301 61.8119 28.2664C61.8216 28.2309 61.8313 28.1954 61.8413 28.1588C61.9089 27.9821 62.0243 27.9208 62.1909 27.8424C62.232 27.8228 62.2732 27.8032 62.3156 27.7831C62.3618 27.7613 62.408 27.7396 62.4555 27.7172C62.5605 27.6673 62.6654 27.6172 62.7702 27.5671C62.7993 27.5532 62.8283 27.5393 62.8583 27.525C63.2432 27.3409 63.6259 27.1524 64.0088 26.9643C64.2297 26.8558 64.4506 26.7475 64.6715 26.6391C64.7149 26.6178 64.7583 26.5965 64.803 26.5746C65.1948 26.3825 65.5869 26.1911 65.9792 26.0002C66.0097 25.9853 66.0403 25.9704 66.0718 25.9551C66.1948 25.8952 66.3178 25.8353 66.4408 25.7755C66.7982 25.6015 67.1555 25.4274 67.5127 25.2532C67.5844 25.2182 67.6562 25.1832 67.728 25.1482C67.8275 25.0997 67.9271 25.0512 68.0266 25.0026C68.0557 24.9884 68.0848 24.9743 68.1147 24.9597C68.1562 24.9394 68.1562 24.9394 68.1986 24.9188C68.2251 24.9059 68.2516 24.893 68.279 24.8798C68.3358 24.8516 68.3922 24.8225 68.4483 24.7928C68.5237 24.7533 68.6006 24.7167 68.6778 24.6807Z" fill="black"/>
<path d="M50.2297 24.6807C50.4198 24.7521 50.6 24.8418 50.782 24.9313C50.8345 24.957 50.8345 24.957 50.888 24.9832C50.9636 25.0203 51.0393 25.0574 51.1149 25.0945C51.2353 25.1536 51.3559 25.2127 51.4764 25.2717C51.601 25.3328 51.7256 25.3938 51.8502 25.4549C52.2474 25.6495 52.645 25.8436 53.0427 26.0374C53.1098 26.0702 53.1769 26.1029 53.2441 26.1356C53.3447 26.1847 53.4453 26.2338 53.5459 26.2828C53.7488 26.3818 53.9518 26.4808 54.1547 26.5798C54.2233 26.6132 54.2918 26.6467 54.3603 26.6801C54.5301 26.7628 54.6997 26.8457 54.8692 26.929C55.1804 27.0816 55.4921 27.2327 55.8067 27.3782C55.9504 27.4448 56.0937 27.5122 56.237 27.5797C56.3049 27.6113 56.3729 27.6426 56.4412 27.6733C57.0758 27.9598 57.0758 27.9598 57.2391 28.2959C57.2671 28.3782 57.2671 28.3782 57.2671 28.4578C56.892 28.3957 56.5233 28.3099 56.1538 28.2217C56.1201 28.2137 56.0863 28.2056 56.0515 28.1974C54.9065 27.9245 53.7666 27.63 52.6259 27.3393C52.5982 27.3322 52.5705 27.3251 52.542 27.3179C52.4647 27.2982 52.3875 27.2784 52.3103 27.2586C52.2023 27.2314 52.0942 27.2057 51.9857 27.1805C51.8355 27.139 51.7847 27.0899 51.6884 26.9693C51.5274 26.7763 51.3559 26.6016 51.1749 26.4274C50.8839 26.1272 50.6986 25.7988 50.5275 25.4207C50.4902 25.3381 50.4522 25.2559 50.414 25.1737C50.2297 24.7733 50.2297 24.7733 50.2297 24.6807Z" fill="black"/>
</svg>
