<svg width="36" height="22" viewBox="0 0 36 22" fill="none" xmlns="http://www.w3.org/2000/svg">
<path d="M2 1H34C34.5523 1 35 1.44772 35 2V19.7907C35 20.4183 34.4286 20.8908 33.8122 20.7729L1.81223 14.6553C1.34088 14.5652 1 14.1529 1 13.6731V2C1 1.44772 1.44772 1 2 1Z" fill="white" stroke="white" stroke-width="2"/>
<path d="M10.7585 14V5.27273H12.6037V12.4787H16.3452V14H10.7585ZM17.5671 14V5.27273H21.0614C21.7035 5.27273 22.239 5.3679 22.668 5.55824C23.0969 5.74858 23.4194 6.01278 23.6353 6.35085C23.8512 6.68608 23.9592 7.07244 23.9592 7.50994C23.9592 7.85085 23.891 8.15057 23.7546 8.40909C23.6183 8.66477 23.4308 8.875 23.1921 9.03977C22.9563 9.2017 22.6864 9.31676 22.3825 9.38494V9.47017C22.7148 9.48437 23.0259 9.57812 23.3157 9.75142C23.6083 9.92472 23.8455 10.1676 24.0273 10.4801C24.2092 10.7898 24.3001 11.1591 24.3001 11.5881C24.3001 12.0511 24.185 12.4645 23.9549 12.8281C23.7276 13.1889 23.391 13.4744 22.945 13.6847C22.4989 13.8949 21.9492 14 21.2958 14H17.5671ZM19.4123 12.4915H20.9165C21.4308 12.4915 21.8058 12.3935 22.0415 12.1974C22.2773 11.9986 22.3952 11.7344 22.3952 11.4048C22.3952 11.1634 22.337 10.9503 22.2205 10.7656C22.104 10.581 21.9379 10.4361 21.7219 10.331C21.5089 10.2259 21.2546 10.1733 20.9592 10.1733H19.4123V12.4915ZM19.4123 8.92472H20.7802C21.033 8.92472 21.2575 8.88068 21.4535 8.79261C21.6523 8.7017 21.8086 8.57386 21.9222 8.40909C22.0387 8.24432 22.0969 8.04688 22.0969 7.81676C22.0969 7.50142 21.9847 7.24716 21.7603 7.05398C21.5387 6.8608 21.2234 6.7642 20.8143 6.7642H19.4123V8.92472Z" fill="black"/>
</svg>
