<svg width="36" height="22" viewBox="0 0 36 22" fill="none" xmlns="http://www.w3.org/2000/svg">
<path d="M34 1H2C1.44772 1 1 1.44772 1 2V19.7907C1 20.4183 1.57136 20.8908 2.18778 20.7729L34.1878 14.6553C34.6591 14.5652 35 14.1529 35 13.6731V2C35 1.44772 34.5523 1 34 1Z" fill="white" stroke="white" stroke-width="2"/>
<path d="M10.7585 14V5.27273H14.2017C14.8608 5.27273 15.4233 5.39062 15.8892 5.62642C16.358 5.85937 16.7145 6.19034 16.9588 6.61932C17.206 7.04545 17.3295 7.54687 17.3295 8.12358C17.3295 8.70312 17.2045 9.2017 16.9545 9.61932C16.7045 10.0341 16.3423 10.3523 15.8679 10.5739C15.3963 10.7955 14.8253 10.9062 14.1548 10.9062H11.8494V9.4233H13.8565C14.2088 9.4233 14.5014 9.375 14.7344 9.27841C14.9673 9.18182 15.1406 9.03693 15.2543 8.84375C15.3707 8.65057 15.429 8.41051 15.429 8.12358C15.429 7.83381 15.3707 7.58949 15.2543 7.39062C15.1406 7.19176 14.9659 7.04119 14.7301 6.93892C14.4972 6.83381 14.2031 6.78125 13.848 6.78125H12.6037V14H10.7585ZM15.4716 10.0284L17.6406 14H15.6037L13.4815 10.0284H15.4716ZM18.6335 14V5.27273H22.1278C22.7699 5.27273 23.3054 5.3679 23.7344 5.55824C24.1634 5.74858 24.4858 6.01278 24.7017 6.35085C24.9176 6.68608 25.0256 7.07244 25.0256 7.50994C25.0256 7.85085 24.9574 8.15057 24.821 8.40909C24.6847 8.66477 24.4972 8.875 24.2585 9.03977C24.0227 9.2017 23.7528 9.31676 23.4489 9.38494V9.47017C23.7813 9.48437 24.0923 9.57812 24.3821 9.75142C24.6747 9.92472 24.9119 10.1676 25.0938 10.4801C25.2756 10.7898 25.3665 11.1591 25.3665 11.5881C25.3665 12.0511 25.2514 12.4645 25.0213 12.8281C24.794 13.1889 24.4574 13.4744 24.0114 13.6847C23.5653 13.8949 23.0156 14 22.3622 14H18.6335ZM20.4787 12.4915H21.983C22.4972 12.4915 22.8722 12.3935 23.108 12.1974C23.3438 11.9986 23.4616 11.7344 23.4616 11.4048C23.4616 11.1634 23.4034 10.9503 23.2869 10.7656C23.1705 10.581 23.0043 10.4361 22.7884 10.331C22.5753 10.2259 22.321 10.1733 22.0256 10.1733H20.4787V12.4915ZM20.4787 8.92472H21.8466C22.0994 8.92472 22.3239 8.88068 22.5199 8.79261C22.7188 8.7017 22.875 8.57386 22.9886 8.40909C23.1051 8.24432 23.1634 8.04688 23.1634 7.81676C23.1634 7.50142 23.0511 7.24716 22.8267 7.05398C22.6051 6.8608 22.2898 6.7642 21.8807 6.7642H20.4787V8.92472Z" fill="black"/>
</svg>
